<svg xmlns="http://www.w3.org/2000/svg" viewBox="0 0 24 24" fill="none" stroke="#c9a84c" stroke-width="1.6" stroke-linecap="round" stroke-linejoin="round">
  <path d="M12 3.6c-2.6 0-4 1.9-4 4.2v2.4c-1.5 1.6-2.4 4-2.4 6 0 3 2.2 4.8 6.4 4.8s6.4-1.8 6.4-4.8c0-2-.9-4.4-2.4-6V7.8c0-2.3-1.4-4.2-4-4.2Z" />
  <path d="M9.5 11.2c0 .6-.4 1-.9 1s-.9-.4-.9-1 .4-1 .9-1 .9.4.9 1Z" fill="#c9a84c" />
  <path d="M16.3 11.2c0 .6-.4 1-.9 1s-.9-.4-.9-1 .4-1 .9-1 .9.4.9 1Z" fill="#c9a84c" />
  <path d="M10.4 14.2c.9.8 2.3.8 3.2 0" />
  <path d="M8.5 18.6 7.4 21" />
  <path d="M15.5 18.6 16.6 21" />
</svg>
